<?xml version="1.0" encoding="UTF-8" standalone="no"?>
<!DOCTYPE svg PUBLIC "-//W3C//DTD SVG 1.1//EN"
 "http://www.w3.org/Graphics/SVG/1.1/DTD/svg11.dtd">
<!-- Generated by graphviz version 2.26.3 (20100126.1600)
 -->
<!-- Title: controllers_diagram Pages: 1 -->
<svg width="6521pt" height="2774pt"
 viewBox="0.00 0.00 6521.24 2774.43" xmlns="http://www.w3.org/2000/svg" xmlns:xlink="http://www.w3.org/1999/xlink">
<g id="graph1" class="graph" transform="scale(1 1) rotate(0) translate(4 2770.43)">
<title>controllers_diagram</title>
<polygon fill="white" stroke="white" points="-4,5 -4,-2770.43 6518.24,-2770.43 6518.24,5 -4,5"/>
<!-- _diagram_info -->
<g id="node1" class="node"><title>_diagram_info</title>
<text text-anchor="start" x="4026" y="-78.3" font-family="Times Roman,serif" font-size="13.00">Controllers diagram</text>
<text text-anchor="start" x="4026" y="-61.3" font-family="Times Roman,serif" font-size="13.00">Date: Oct 09 2013 &#45; 10:40</text>
<text text-anchor="start" x="4026" y="-44.3" font-family="Times Roman,serif" font-size="13.00">Migration version: 20130821142246</text>
<text text-anchor="start" x="4026" y="-27.3" font-family="Times Roman,serif" font-size="13.00">Generated by RailRoady 1.1.0</text>
<text text-anchor="start" x="4026" y="-10.3" font-family="Times Roman,serif" font-size="13.00">http://railroady.prestonlee.com</text>
</g>
<!-- People::Affairs::SubscriptionsController -->
<g id="node2" class="node"><title>People::Affairs::SubscriptionsController</title>
<ellipse fill="none" stroke="black" cx="282.077" cy="-531.438" rx="200.818" ry="18.3848"/>
<text text-anchor="middle" x="282.077" y="-527.838" font-family="Times Roman,serif" font-size="14.00">People::Affairs::SubscriptionsController</text>
</g>
<!-- People::Affairs::InvoicesController -->
<g id="node3" class="node"><title>People::Affairs::InvoicesController</title>
<ellipse fill="none" stroke="black" cx="4519.84" cy="-1094.42" rx="174.863" ry="18.3848"/>
<text text-anchor="middle" x="4519.84" y="-1090.82" font-family="Times Roman,serif" font-size="14.00">People::Affairs::InvoicesController</text>
</g>
<!-- People::Affairs::ReceiptsController -->
<g id="node4" class="node"><title>People::Affairs::ReceiptsController</title>
<ellipse fill="none" stroke="black" cx="2768.98" cy="-341.234" rx="176.777" ry="18.3848"/>
<text text-anchor="middle" x="2768.98" y="-337.634" font-family="Times Roman,serif" font-size="14.00">People::Affairs::ReceiptsController</text>
</g>
<!-- People::TranslationAptitudesController -->
<g id="node5" class="node"><title>People::TranslationAptitudesController</title>
<ellipse fill="none" stroke="black" cx="2596.9" cy="-2728.4" rx="198.197" ry="18.3848"/>
<text text-anchor="middle" x="2596.9" y="-2724.8" font-family="Times Roman,serif" font-size="14.00">People::TranslationAptitudesController</text>
</g>
<!-- People::PermissionsController -->
<g id="node6" class="node"><title>People::PermissionsController</title>
<ellipse fill="none" stroke="black" cx="3669.4" cy="-1327.43" rx="155.063" ry="18.3848"/>
<text text-anchor="middle" x="3669.4" y="-1323.83" font-family="Times Roman,serif" font-size="14.00">People::PermissionsController</text>
</g>
<!-- People::PrivateTagsController -->
<g id="node7" class="node"><title>People::PrivateTagsController</title>
<ellipse fill="none" stroke="black" cx="2863" cy="-1330.54" rx="154.856" ry="18.3848"/>
<text text-anchor="middle" x="2863" y="-1326.94" font-family="Times Roman,serif" font-size="14.00">People::PrivateTagsController</text>
</g>
<!-- People::Salaries::TaxDataController -->
<g id="node8" class="node"><title>People::Salaries::TaxDataController</title>
<ellipse fill="none" stroke="black" cx="1399.67" cy="-473.124" rx="183.848" ry="18.3848"/>
<text text-anchor="middle" x="1399.67" y="-469.524" font-family="Times Roman,serif" font-size="14.00">People::Salaries::TaxDataController</text>
</g>
<!-- People::Salaries::ItemsController -->
<g id="node9" class="node"><title>People::Salaries::ItemsController</title>
<ellipse fill="none" stroke="black" cx="5266.22" cy="-1167.62" rx="169.913" ry="18.3848"/>
<text text-anchor="middle" x="5266.22" y="-1164.02" font-family="Times Roman,serif" font-size="14.00">People::Salaries::ItemsController</text>
</g>
<!-- People::Salaries::SalariesController -->
<g id="node10" class="node"><title>People::Salaries::SalariesController</title>
<ellipse fill="none" stroke="black" cx="3273.09" cy="-328.5" rx="181.226" ry="18.3848"/>
<text text-anchor="middle" x="3273.09" y="-324.9" font-family="Times Roman,serif" font-size="14.00">People::Salaries::SalariesController</text>
</g>
<!-- People::TasksController -->
<g id="node11" class="node"><title>People::TasksController</title>
<ellipse fill="none" stroke="black" cx="4342.1" cy="-381.458" rx="123.951" ry="18.3848"/>
<text text-anchor="middle" x="4342.1" y="-377.858" font-family="Times Roman,serif" font-size="14.00">People::TasksController</text>
</g>
<!-- People::HistoriesController -->
<g id="node12" class="node"><title>People::HistoriesController</title>
<ellipse fill="none" stroke="black" cx="3498.23" cy="-883.861" rx="140.922" ry="18.3848"/>
<text text-anchor="middle" x="3498.23" y="-880.261" font-family="Times Roman,serif" font-size="14.00">People::HistoriesController</text>
</g>
<!-- People::CommunicationLanguagesController -->
<g id="node13" class="node"><title>People::CommunicationLanguagesController</title>
<ellipse fill="none" stroke="black" cx="228" cy="-1551.68" rx="226.981" ry="18.3848"/>
<text text-anchor="middle" x="228" y="-1548.08" font-family="Times Roman,serif" font-size="14.00">People::CommunicationLanguagesController</text>
</g>
<!-- People::ActivitiesController -->
<g id="node14" class="node"><title>People::ActivitiesController</title>
<ellipse fill="none" stroke="black" cx="6368.74" cy="-1526.06" rx="143.043" ry="18.3848"/>
<text text-anchor="middle" x="6368.74" y="-1522.46" font-family="Times Roman,serif" font-size="14.00">People::ActivitiesController</text>
</g>
<!-- People::AffairsController -->
<g id="node15" class="node"><title>People::AffairsController</title>
<ellipse fill="none" stroke="black" cx="4583.88" cy="-1830.11" rx="130.108" ry="18.3848"/>
<text text-anchor="middle" x="4583.88" y="-1826.51" font-family="Times Roman,serif" font-size="14.00">People::AffairsController</text>
</g>
<!-- People::RolesController -->
<g id="node16" class="node"><title>People::RolesController</title>
<ellipse fill="none" stroke="black" cx="3475.16" cy="-2737.11" rx="123.951" ry="18.3848"/>
<text text-anchor="middle" x="3475.16" y="-2733.51" font-family="Times Roman,serif" font-size="14.00">People::RolesController</text>
</g>
<!-- People::PublicTagsController -->
<g id="node17" class="node"><title>People::PublicTagsController</title>
<ellipse fill="none" stroke="black" cx="3977.06" cy="-944.13" rx="147.992" ry="18.3848"/>
<text text-anchor="middle" x="3977.06" y="-940.53" font-family="Times Roman,serif" font-size="14.00">People::PublicTagsController</text>
</g>
<!-- People::EmploymentContractsController -->
<g id="node18" class="node"><title>People::EmploymentContractsController</title>
<ellipse fill="none" stroke="black" cx="5122.94" cy="-403.186" rx="207.182" ry="18.3848"/>
<text text-anchor="middle" x="5122.94" y="-399.586" font-family="Times Roman,serif" font-size="14.00">People::EmploymentContractsController</text>
</g>
<!-- People::CommentsController -->
<g id="node19" class="node"><title>People::CommentsController</title>
<ellipse fill="none" stroke="black" cx="1309.48" cy="-2513.03" rx="150.113" ry="18.3848"/>
<text text-anchor="middle" x="1309.48" y="-2509.43" font-family="Times Roman,serif" font-size="14.00">People::CommentsController</text>
</g>
<!-- Directory::QueryPresetsController -->
<g id="node20" class="node"><title>Directory::QueryPresetsController</title>
<ellipse fill="none" stroke="black" cx="259.742" cy="-2558.05" rx="178.191" ry="18.3848"/>
<text text-anchor="middle" x="259.742" y="-2554.45" font-family="Times Roman,serif" font-size="14.00">Directory::QueryPresetsController</text>
</g>
<!-- SettingsController -->
<g id="node21" class="node"><title>SettingsController</title>
<ellipse fill="none" stroke="black" cx="2402.87" cy="-2105.81" rx="101.116" ry="18.3848"/>
<text text-anchor="middle" x="2402.87" y="-2102.21" font-family="Times Roman,serif" font-size="14.00">SettingsController</text>
</g>
<!-- Salaries::TaxesController -->
<g id="node22" class="node"><title>Salaries::TaxesController</title>
<ellipse fill="none" stroke="black" cx="3043.13" cy="-886.328" rx="131.022" ry="18.3848"/>
<text text-anchor="middle" x="3043.13" y="-882.728" font-family="Times Roman,serif" font-size="14.00">Salaries::TaxesController</text>
</g>
<!-- Salaries::SalariesController -->
<g id="node23" class="node"><title>Salaries::SalariesController</title>
<ellipse fill="none" stroke="black" cx="1985.21" cy="-1099.46" rx="143.043" ry="18.3848"/>
<text text-anchor="middle" x="1985.21" y="-1095.86" font-family="Times Roman,serif" font-size="14.00">Salaries::SalariesController</text>
</g>
<!-- Salaries::SalaryTemplatesController -->
<g id="node24" class="node"><title>Salaries::SalaryTemplatesController</title>
<ellipse fill="none" stroke="black" cx="3665.67" cy="-2180.62" rx="184.055" ry="18.3848"/>
<text text-anchor="middle" x="3665.67" y="-2177.02" font-family="Times Roman,serif" font-size="14.00">Salaries::SalaryTemplatesController</text>
</g>
<!-- Settings::InvoiceTemplatesController -->
<g id="node25" class="node"><title>Settings::InvoiceTemplatesController</title>
<ellipse fill="none" stroke="black" cx="4441.71" cy="-2640.29" rx="190.212" ry="18.3848"/>
<text text-anchor="middle" x="4441.71" y="-2636.69" font-family="Times Roman,serif" font-size="14.00">Settings::InvoiceTemplatesController</text>
</g>
<!-- Settings::LocationsController -->
<g id="node26" class="node"><title>Settings::LocationsController</title>
<ellipse fill="none" stroke="black" cx="3055.7" cy="-2742.62" rx="152.942" ry="18.3848"/>
<text text-anchor="middle" x="3055.7" y="-2739.02" font-family="Times Roman,serif" font-size="14.00">Settings::LocationsController</text>
</g>
<!-- Settings::LanguagesController -->
<g id="node27" class="node"><title>Settings::LanguagesController</title>
<ellipse fill="none" stroke="black" cx="3774.36" cy="-337.363" rx="159.806" ry="18.3848"/>
<text text-anchor="middle" x="3774.36" y="-333.763" font-family="Times Roman,serif" font-size="14.00">Settings::LanguagesController</text>
</g>
<!-- Settings::PermissionsController -->
<g id="node28" class="node"><title>Settings::PermissionsController</title>
<ellipse fill="none" stroke="black" cx="5163.52" cy="-2678.84" rx="164.049" ry="18.3848"/>
<text text-anchor="middle" x="5163.52" y="-2675.24" font-family="Times Roman,serif" font-size="14.00">Settings::PermissionsController</text>
</g>
<!-- Settings::ApplicationSettingsController -->
<g id="node29" class="node"><title>Settings::ApplicationSettingsController</title>
<ellipse fill="none" stroke="black" cx="3101.89" cy="-1709.69" rx="200.818" ry="18.3848"/>
<text text-anchor="middle" x="3101.89" y="-1706.09" font-family="Times Roman,serif" font-size="14.00">Settings::ApplicationSettingsController</text>
</g>
<!-- Settings::JobsController -->
<g id="node30" class="node"><title>Settings::JobsController</title>
<ellipse fill="none" stroke="black" cx="2552.52" cy="-948.131" rx="126.072" ry="18.3848"/>
<text text-anchor="middle" x="2552.52" y="-944.531" font-family="Times Roman,serif" font-size="14.00">Settings::JobsController</text>
</g>
<!-- Settings::LdapAttributesController -->
<g id="node31" class="node"><title>Settings::LdapAttributesController</title>
<ellipse fill="none" stroke="black" cx="6287.28" cy="-515.083" rx="179.105" ry="18.3848"/>
<text text-anchor="middle" x="6287.28" y="-511.483" font-family="Times Roman,serif" font-size="14.00">Settings::LdapAttributesController</text>
</g>
<!-- Settings::Roles::PermissionsController -->
<g id="node32" class="node"><title>Settings::Roles::PermissionsController</title>
<ellipse fill="none" stroke="black" cx="3269.24" cy="-2157.92" rx="195.869" ry="18.3848"/>
<text text-anchor="middle" x="3269.24" y="-2154.32" font-family="Times Roman,serif" font-size="14.00">Settings::Roles::PermissionsController</text>
</g>
<!-- Settings::RolesController -->
<g id="node33" class="node"><title>Settings::RolesController</title>
<ellipse fill="none" stroke="black" cx="4122.37" cy="-1484.23" rx="132.936" ry="18.3848"/>
<text text-anchor="middle" x="4122.37" y="-1480.63" font-family="Times Roman,serif" font-size="14.00">Settings::RolesController</text>
</g>
<!-- Settings::SearchAttributesController -->
<g id="node34" class="node"><title>Settings::SearchAttributesController</title>
<ellipse fill="none" stroke="black" cx="2186.41" cy="-371.694" rx="190.212" ry="18.3848"/>
<text text-anchor="middle" x="2186.41" y="-368.094" font-family="Times Roman,serif" font-size="14.00">Settings::SearchAttributesController</text>
</g>
<!-- AdminController -->
<g id="node35" class="node"><title>AdminController</title>
<ellipse fill="none" stroke="black" cx="2743.53" cy="-1732.59" rx="91.2168" ry="18.3848"/>
<text text-anchor="middle" x="2743.53" y="-1728.99" font-family="Times Roman,serif" font-size="14.00">AdminController</text>
</g>
<!-- DirectoryController -->
<g id="node36" class="node"><title>DirectoryController</title>
<ellipse fill="none" stroke="black" cx="4113.41" cy="-2085.66" rx="106.066" ry="18.3848"/>
<text text-anchor="middle" x="4113.41" y="-2082.06" font-family="Times Roman,serif" font-size="14.00">DirectoryController</text>
</g>
<!-- SalariesController -->
<g id="node37" class="node"><title>SalariesController</title>
<ellipse fill="none" stroke="black" cx="3269.45" cy="-1313.21" rx="98.9949" ry="18.3848"/>
<text text-anchor="middle" x="3269.45" y="-1309.61" font-family="Times Roman,serif" font-size="14.00">SalariesController</text>
</g>
<!-- PeopleController -->
<g id="node38" class="node"><title>PeopleController</title>
<ellipse fill="none" stroke="black" cx="3786.44" cy="-1729.29" rx="92.1303" ry="18.3848"/>
<text text-anchor="middle" x="3786.44" y="-1725.69" font-family="Times Roman,serif" font-size="14.00">PeopleController</text>
</g>
<!-- BackgroundTasksController -->
<g id="node39" class="node"><title>BackgroundTasksController</title>
<ellipse fill="none" stroke="black" cx="3928.51" cy="-2746.93" rx="144.25" ry="18.3848"/>
<text text-anchor="middle" x="3928.51" y="-2743.33" font-family="Times Roman,serif" font-size="14.00">BackgroundTasksController</text>
</g>
<!-- Admin::SubscriptionsController -->
<g id="node40" class="node"><title>Admin::SubscriptionsController</title>
<ellipse fill="none" stroke="black" cx="1896.7" cy="-1879.42" rx="162.134" ry="18.3848"/>
<text text-anchor="middle" x="1896.7" y="-1875.82" font-family="Times Roman,serif" font-size="14.00">Admin::SubscriptionsController</text>
</g>
<!-- Admin::InvoicesController -->
<g id="node41" class="node"><title>Admin::InvoicesController</title>
<ellipse fill="none" stroke="black" cx="1264.32" cy="-1442.19" rx="137.179" ry="18.3848"/>
<text text-anchor="middle" x="1264.32" y="-1438.59" font-family="Times Roman,serif" font-size="14.00">Admin::InvoicesController</text>
</g>
<!-- Admin::BankImportHistoriesController -->
<g id="node42" class="node"><title>Admin::BankImportHistoriesController</title>
<ellipse fill="none" stroke="black" cx="2873.04" cy="-2176.47" rx="196.783" ry="18.3848"/>
<text text-anchor="middle" x="2873.04" y="-2172.87" font-family="Times Roman,serif" font-size="14.00">Admin::BankImportHistoriesController</text>
</g>
<!-- Admin::ReceiptsController -->
<g id="node43" class="node"><title>Admin::ReceiptsController</title>
<ellipse fill="none" stroke="black" cx="2032.64" cy="-2704.67" rx="137.886" ry="18.3848"/>
<text text-anchor="middle" x="2032.64" y="-2701.07" font-family="Times Roman,serif" font-size="14.00">Admin::ReceiptsController</text>
</g>
<!-- Admin::PrivateTagsController -->
<g id="node44" class="node"><title>Admin::PrivateTagsController</title>
<ellipse fill="none" stroke="black" cx="2388.14" cy="-1500.26" rx="154.149" ry="18.3848"/>
<text text-anchor="middle" x="2388.14" y="-1496.66" font-family="Times Roman,serif" font-size="14.00">Admin::PrivateTagsController</text>
</g>
<!-- Admin::AffairsController -->
<g id="node45" class="node"><title>Admin::AffairsController</title>
<ellipse fill="none" stroke="black" cx="6306.43" cy="-2554.45" rx="128.193" ry="18.3848"/>
<text text-anchor="middle" x="6306.43" y="-2550.85" font-family="Times Roman,serif" font-size="14.00">Admin::AffairsController</text>
</g>
<!-- Admin::PublicTagsController -->
<g id="node46" class="node"><title>Admin::PublicTagsController</title>
<ellipse fill="none" stroke="black" cx="5307.65" cy="-1919.23" rx="147.785" ry="18.3848"/>
<text text-anchor="middle" x="5307.65" y="-1915.63" font-family="Times Roman,serif" font-size="14.00">Admin::PublicTagsController</text>
</g>
<!-- ApplicationController -->
<g id="node47" class="node"><title>ApplicationController</title>
<ellipse fill="none" stroke="black" cx="3435.96" cy="-1710.2" rx="113.844" ry="18.3848"/>
<text text-anchor="middle" x="3435.96" y="-1706.6" font-family="Times Roman,serif" font-size="14.00">ApplicationController</text>
</g>
<!-- ApplicationController&#45;&gt;People::Affairs::SubscriptionsController -->
<g id="edge2" class="edge"><title>ApplicationController&#45;&gt;People::Affairs::SubscriptionsController</title>
<path fill="none" stroke="black" d="M3390.47,-1693.19C3034.24,-1560.06 696.805,-686.442 330.372,-549.488"/>
</g>
<!-- ApplicationController&#45;&gt;People::Affairs::InvoicesController -->
<g id="edge4" class="edge"><title>ApplicationController&#45;&gt;People::Affairs::InvoicesController</title>
<path fill="none" stroke="black" d="M3467.52,-1692.27C3625.43,-1602.56 4328.44,-1203.16 4487.69,-1112.68"/>
</g>
<!-- ApplicationController&#45;&gt;People::Affairs::ReceiptsController -->
<g id="edge6" class="edge"><title>ApplicationController&#45;&gt;People::Affairs::ReceiptsController</title>
<path fill="none" stroke="black" d="M3420.78,-1691.78C3351.04,-1606.27 3058.57,-1237.21 2910.53,-886.292 2827.31,-689.016 2782.88,-430.379 2771.78,-359.737"/>
</g>
<!-- ApplicationController&#45;&gt;People::TranslationAptitudesController -->
<g id="edge8" class="edge"><title>ApplicationController&#45;&gt;People::TranslationAptitudesController</title>
<path fill="none" stroke="black" d="M3412.71,-1728.36C3344.03,-1783.71 3142.44,-1958.63 3071.64,-2157.85 3068.85,-2165.7 3074.53,-2168.78 3071.64,-2176.59 2977.26,-2431.04 2707.15,-2646.9 2622.55,-2709.86"/>
</g>
<!-- ApplicationController&#45;&gt;People::PermissionsController -->
<g id="edge10" class="edge"><title>ApplicationController&#45;&gt;People::PermissionsController</title>
<path fill="none" stroke="black" d="M3447.22,-1691.74C3486.66,-1627.07 3618.3,-1411.22 3657.98,-1346.15"/>
</g>
<!-- ApplicationController&#45;&gt;People::PrivateTagsController -->
<g id="edge12" class="edge"><title>ApplicationController&#45;&gt;People::PrivateTagsController</title>
<path fill="none" stroke="black" d="M3408.71,-1692.14C3312.3,-1628.26 2987.95,-1413.33 2890.75,-1348.93"/>
</g>
<!-- ApplicationController&#45;&gt;People::Salaries::TaxDataController -->
<g id="edge14" class="edge"><title>ApplicationController&#45;&gt;People::Salaries::TaxDataController</title>
<path fill="none" stroke="black" d="M3398.82,-1692.51C3290.29,-1640.48 2965.08,-1482.09 2706.4,-1330.42 2175.08,-1018.9 1558.58,-585.774 1425.72,-491.642"/>
</g>
<!-- ApplicationController&#45;&gt;People::Salaries::ItemsController -->
<g id="edge16" class="edge"><title>ApplicationController&#45;&gt;People::Salaries::ItemsController</title>
<path fill="none" stroke="black" d="M3497.18,-1694.51C3629.12,-1660.5 3949.95,-1576.72 4216.59,-1498.58 4600.73,-1386 5059.09,-1236.04 5212.93,-1185.27"/>
</g>
<!-- ApplicationController&#45;&gt;People::Salaries::SalariesController -->
<g id="edge18" class="edge"><title>ApplicationController&#45;&gt;People::Salaries::SalariesController</title>
<path fill="none" stroke="black" d="M3433.75,-1691.45C3415.75,-1538.74 3293.38,-500.637 3275.32,-347.385"/>
</g>
<!-- ApplicationController&#45;&gt;People::TasksController -->
<g id="edge20" class="edge"><title>ApplicationController&#45;&gt;People::TasksController</title>
<path fill="none" stroke="black" d="M3458.58,-1691.83C3554.36,-1612.87 3930.53,-1290.58 4126.65,-944.33 4239.97,-744.261 4317.49,-472.919 4337.18,-400.086"/>
</g>
<!-- ApplicationController&#45;&gt;People::HistoriesController -->
<g id="edge22" class="edge"><title>ApplicationController&#45;&gt;People::HistoriesController</title>
<path fill="none" stroke="black" d="M3437.38,-1691.39C3445.73,-1580.52 3488.46,-1013.43 3496.81,-902.643"/>
</g>
<!-- ApplicationController&#45;&gt;People::CommunicationLanguagesController -->
<g id="edge24" class="edge"><title>ApplicationController&#45;&gt;People::CommunicationLanguagesController</title>
<path fill="none" stroke="black" d="M3334.16,-1701.81C3305.75,-1699.62 3274.86,-1697.38 3246.36,-1695.6 2189.67,-1629.75 923.217,-1578.28 434.422,-1559.45"/>
</g>
<!-- ApplicationController&#45;&gt;People::ActivitiesController -->
<g id="edge26" class="edge"><title>ApplicationController&#45;&gt;People::ActivitiesController</title>
<path fill="none" stroke="black" d="M3542.51,-1703.51C3993.91,-1675.17 5748.03,-1565.03 6239.88,-1534.15"/>
</g>
<!-- ApplicationController&#45;&gt;People::AffairsController -->
<g id="edge28" class="edge"><title>ApplicationController&#45;&gt;People::AffairsController</title>
<path fill="none" stroke="black" d="M3527.59,-1721.3C3583.14,-1727.93 3655.45,-1736.4 3719.67,-1743.37 3991.57,-1772.91 4311.99,-1804.13 4475.7,-1819.83"/>
</g>
<!-- ApplicationController&#45;&gt;People::RolesController -->
<g id="edge30" class="edge"><title>ApplicationController&#45;&gt;People::RolesController</title>
<path fill="none" stroke="black" d="M3437.62,-1728.95C3442.98,-1790.41 3459.9,-1991.37 3466.83,-2157.99 3476.02,-2378.51 3475.58,-2646.63 3475.26,-2718.6"/>
</g>
<!-- ApplicationController&#45;&gt;People::PublicTagsController -->
<g id="edge32" class="edge"><title>ApplicationController&#45;&gt;People::PublicTagsController</title>
<path fill="none" stroke="black" d="M3460.95,-1691.87C3528.56,-1641.14 3717.29,-1491.69 3825.99,-1327.61 3909.78,-1201.15 3958.39,-1021.15 3972.63,-963.014"/>
</g>
<!-- ApplicationController&#45;&gt;People::EmploymentContractsController -->
<g id="edge34" class="edge"><title>ApplicationController&#45;&gt;People::EmploymentContractsController</title>
<path fill="none" stroke="black" d="M3459.49,-1691.97C3647.89,-1546 4909.19,-568.789 5099.03,-421.707"/>
</g>
<!-- ApplicationController&#45;&gt;People::CommentsController -->
<g id="edge36" class="edge"><title>ApplicationController&#45;&gt;People::CommentsController</title>
<path fill="none" stroke="black" d="M3384.32,-1726.8C3225.8,-1778.04 2732.48,-1939.39 2330.38,-2091.59 1945.26,-2237.36 1487.87,-2435.13 1350.46,-2495.08"/>
</g>
<!-- ApplicationController&#45;&gt;Directory::QueryPresetsController -->
<g id="edge38" class="edge"><title>ApplicationController&#45;&gt;Directory::QueryPresetsController</title>
<path fill="none" stroke="black" d="M3376.39,-1726.1C2980.73,-1831.72 735.413,-2431.08 324.363,-2540.8"/>
</g>
<!-- ApplicationController&#45;&gt;SettingsController -->
<g id="edge40" class="edge"><title>ApplicationController&#45;&gt;SettingsController</title>
<path fill="none" stroke="black" d="M3391.24,-1727.32C3221.03,-1792.51 2614.75,-2024.67 2446.47,-2089.12"/>
</g>
<!-- ApplicationController&#45;&gt;Salaries::TaxesController -->
<g id="edge42" class="edge"><title>ApplicationController&#45;&gt;Salaries::TaxesController</title>
<path fill="none" stroke="black" d="M3420.38,-1691.64C3375.26,-1637.05 3243.06,-1470.99 3168.85,-1313.06 3098.55,-1163.48 3057.93,-965.781 3046.5,-904.939"/>
</g>
<!-- ApplicationController&#45;&gt;Salaries::SalariesController -->
<g id="edge44" class="edge"><title>ApplicationController&#45;&gt;Salaries::SalariesController</title>
<path fill="none" stroke="black" d="M3394.88,-1692.9C3185.53,-1604.77 2239.07,-1206.33 2027.33,-1117.19"/>
</g>
<!-- ApplicationController&#45;&gt;Salaries::SalaryTemplatesController -->
<g id="edge46" class="edge"><title>ApplicationController&#45;&gt;Salaries::SalaryTemplatesController</title>
<path fill="none" stroke="black" d="M3445.11,-1728.93C3482.03,-1804.55 3619.88,-2086.85 3656.62,-2162.09"/>
</g>
<!-- ApplicationController&#45;&gt;Settings::InvoiceTemplatesController -->
<g id="edge48" class="edge"><title>ApplicationController&#45;&gt;Settings::InvoiceTemplatesController</title>
<path fill="none" stroke="black" d="M3456.05,-1728.78C3584.79,-1847.83 4292.69,-2502.48 4421.57,-2621.67"/>
</g>
<!-- ApplicationController&#45;&gt;Settings::LocationsController -->
<g id="edge50" class="edge"><title>ApplicationController&#45;&gt;Settings::LocationsController</title>
<path fill="none" stroke="black" d="M3412.71,-1728.36C3344.03,-1783.71 3142.44,-1958.63 3071.64,-2157.85 3068.85,-2165.7 3071.76,-2168.26 3071.64,-2176.59 3068.62,-2391.86 3059.1,-2653.05 3056.41,-2724.05"/>
</g>
<!-- ApplicationController&#45;&gt;Settings::LanguagesController -->
<g id="edge52" class="edge"><title>ApplicationController&#45;&gt;Settings::LanguagesController</title>
<path fill="none" stroke="black" d="M3439.17,-1691.35C3448.81,-1635.46 3478.93,-1465.9 3512.81,-1327.24 3561.46,-1128.07 3588.04,-1082.17 3640.82,-884.054 3695.66,-678.243 3753.94,-426.517 3770.03,-356.32"/>
</g>
<!-- ApplicationController&#45;&gt;Settings::PermissionsController -->
<g id="edge54" class="edge"><title>ApplicationController&#45;&gt;Settings::PermissionsController</title>
<path fill="none" stroke="black" d="M3461.45,-1728.43C3540.44,-1784.62 3788.88,-1958.95 4005.81,-2085.47 4433.07,-2334.66 4976.56,-2591.75 5124.73,-2660.85"/>
</g>
<!-- ApplicationController&#45;&gt;Settings::ApplicationSettingsController -->
<g id="edge56" class="edge"><title>ApplicationController&#45;&gt;Settings::ApplicationSettingsController</title>
<path fill="none" stroke="black" d="M3321.93,-1710.03C3315.69,-1710.02 3309.34,-1710.01 3302.92,-1710"/>
</g>
<!-- ApplicationController&#45;&gt;Settings::JobsController -->
<g id="edge58" class="edge"><title>ApplicationController&#45;&gt;Settings::JobsController</title>
<path fill="none" stroke="black" d="M3416.36,-1691.65C3357.34,-1635.94 3175.75,-1465.6 3019.6,-1330.66 2852.66,-1186.39 2644.46,-1020.74 2575.72,-966.415"/>
</g>
<!-- ApplicationController&#45;&gt;Settings::LdapAttributesController -->
<g id="edge60" class="edge"><title>ApplicationController&#45;&gt;Settings::LdapAttributesController</title>
<path fill="none" stroke="black" d="M3477.37,-1692.84C3800.53,-1557.39 5914.77,-671.219 6244.17,-533.154"/>
</g>
<!-- ApplicationController&#45;&gt;Settings::Roles::PermissionsController -->
<g id="edge62" class="edge"><title>ApplicationController&#45;&gt;Settings::Roles::PermissionsController</title>
<path fill="none" stroke="black" d="M3429.01,-1728.87C3401.89,-1801.69 3303.39,-2066.21 3276.22,-2139.17"/>
</g>
<!-- ApplicationController&#45;&gt;Settings::RolesController -->
<g id="edge64" class="edge"><title>ApplicationController&#45;&gt;Settings::RolesController</title>
<path fill="none" stroke="black" d="M3486.43,-1693.58C3612.91,-1651.95 3942.38,-1543.48 4070.42,-1501.33"/>
</g>
<!-- ApplicationController&#45;&gt;Settings::SearchAttributesController -->
<g id="edge66" class="edge"><title>ApplicationController&#45;&gt;Settings::SearchAttributesController</title>
<path fill="none" stroke="black" d="M3418.77,-1691.79C3279.98,-1543.11 2343.91,-540.399 2203.92,-390.442"/>
</g>
<!-- ApplicationController&#45;&gt;AdminController -->
<g id="edge68" class="edge"><title>ApplicationController&#45;&gt;AdminController</title>
<path fill="none" stroke="black" d="M3332.85,-1718.23C3304.08,-1720.31 3272.8,-1722.41 3243.93,-1724.03 3101.22,-1732.03 2935.3,-1733.28 2834.91,-1733.16"/>
</g>
<!-- ApplicationController&#45;&gt;DirectoryController -->
<g id="edge70" class="edge"><title>ApplicationController&#45;&gt;DirectoryController</title>
<path fill="none" stroke="black" d="M3468.18,-1728.05C3582.43,-1791.38 3967.45,-2004.76 4081.39,-2067.91"/>
</g>
<!-- ApplicationController&#45;&gt;SalariesController -->
<g id="edge72" class="edge"><title>ApplicationController&#45;&gt;SalariesController</title>
<path fill="none" stroke="black" d="M3428.15,-1691.58C3400.18,-1624.9 3305.18,-1398.4 3277.24,-1331.78"/>
</g>
<!-- ApplicationController&#45;&gt;PeopleController -->
<g id="edge74" class="edge"><title>ApplicationController&#45;&gt;PeopleController</title>
<path fill="none" stroke="black" d="M3544.45,-1716.11C3593.61,-1718.78 3651,-1721.91 3697.55,-1724.45"/>
</g>
<!-- ApplicationController&#45;&gt;BackgroundTasksController -->
<g id="edge76" class="edge"><title>ApplicationController&#45;&gt;BackgroundTasksController</title>
<path fill="none" stroke="black" d="M3434.02,-1729.02C3428.05,-1794.33 3414.08,-2016.17 3480.07,-2180.6 3581.07,-2432.29 3831.42,-2662.87 3906.73,-2728.41"/>
</g>
<!-- ApplicationController&#45;&gt;Admin::SubscriptionsController -->
<g id="edge78" class="edge"><title>ApplicationController&#45;&gt;Admin::SubscriptionsController</title>
<path fill="none" stroke="black" d="M3341.41,-1720.59C3073.15,-1750.09 2307.67,-1834.24 2013.67,-1866.56"/>
</g>
<!-- ApplicationController&#45;&gt;Admin::InvoicesController -->
<g id="edge80" class="edge"><title>ApplicationController&#45;&gt;Admin::InvoicesController</title>
<path fill="none" stroke="black" d="M3345.07,-1698.98C2994.78,-1655.75 1733.59,-1500.11 1365.71,-1454.71"/>
</g>
<!-- ApplicationController&#45;&gt;Admin::BankImportHistoriesController -->
<g id="edge82" class="edge"><title>ApplicationController&#45;&gt;Admin::BankImportHistoriesController</title>
<path fill="none" stroke="black" d="M3413.89,-1728.48C3323.95,-1802.98 2985.49,-2083.33 2895.26,-2158.07"/>
</g>
<!-- ApplicationController&#45;&gt;Admin::ReceiptsController -->
<g id="edge84" class="edge"><title>ApplicationController&#45;&gt;Admin::ReceiptsController</title>
<path fill="none" stroke="black" d="M3403.39,-1727.97C3296.06,-1786.99 2944.94,-1983.65 2674.45,-2176.35 2417.03,-2359.74 2130.34,-2616 2052.85,-2686.24"/>
</g>
<!-- ApplicationController&#45;&gt;Admin::PrivateTagsController -->
<g id="edge86" class="edge"><title>ApplicationController&#45;&gt;Admin::PrivateTagsController</title>
<path fill="none" stroke="black" d="M3363.94,-1695.77C3174.71,-1657.85 2664.54,-1555.64 2467.4,-1516.14"/>
</g>
<!-- ApplicationController&#45;&gt;Admin::AffairsController -->
<g id="edge88" class="edge"><title>ApplicationController&#45;&gt;Admin::AffairsController</title>
<path fill="none" stroke="black" d="M3491.06,-1726.4C3852.74,-1832.78 5883.96,-2430.2 6249.93,-2537.84"/>
</g>
<!-- ApplicationController&#45;&gt;Admin::PublicTagsController -->
<g id="edge90" class="edge"><title>ApplicationController&#45;&gt;Admin::PublicTagsController</title>
<path fill="none" stroke="black" d="M3522.6,-1722.25C3702.56,-1747.06 4130.08,-1804.81 4489.92,-1844.18 4735.27,-1871.03 5022.75,-1895.89 5183.17,-1909.17"/>
</g>
</g>
</svg>
